<?xml version="1.0" encoding="utf-8" ?>
<svg xmlns="http://www.w3.org/2000/svg" xmlns:xlink="http://www.w3.org/1999/xlink" width="156" height="25">
	<path fill="#10b981" transform="translate(41.3241 4.97443)" d="M12.386459 0L4.9705915 0C4.9705915 0 3.247963 6.5139036 2.4577663 9.5721016C2.0458446 11.166544 1.5582167 14.504527 6.4304161 14.504527L13.523832 14.504527C13.523832 14.504527 13.416518 14.95986 13.129754 15.962059C12.843244 16.964258 12.377538 17.173773 11.222066 17.173773L0.76572597 17.173773L0 20.025568L15.691265 20.025568C17.339207 20.025568 19.685837 18.968657 20.402367 16.472364C21.118896 13.976071 24.759409 0 24.759409 0L17.330286 0C17.330286 0 14.965814 8.814683 14.750931 9.7302752C14.536049 10.645867 14.334421 11.670885 13.246243 11.670885L10.613105 11.670885C9.8876534 11.670885 9.3100452 11.629915 9.7130451 10.222428C10.116046 8.814683 12.386459 0 12.386459 0" fill-rule="evenodd"/>
	<path fill="#10b981" transform="translate(21.5486 4.96069)" d="M18.163305 0.01374296C15.404756 0.01374296 3.2780414 0 3.2780414 0L2.531688 2.8562019L13.613558 2.8562019C14.159813 2.8562019 14.500108 3.1751423 14.339009 3.8677356C14.177656 4.5600696 14.133048 4.7057967 14.133048 4.7057967L5.7095528 4.7057967C2.5660996 4.7057967 1.2898048 6.4825282 0.77031422 8.3956518C0.25082371 10.309035 0 11.165506 0 12.14022C0 13.115191 0.18811777 14.513603 3.4123747 14.513603L15.673422 14.513603C17.572187 14.513603 19.41717 12.823478 19.865032 11.165506C20.312895 9.5072756 21.781641 4.5691452 21.781641 3.0021884C21.781641 1.4349724 20.921856 0.01374296 18.163305 0.01374296M12.637282 10.336262C12.476185 10.937581 12.198341 11.693703 11.007184 11.693703L8.6875744 11.693703C8.1770058 11.693703 7.5948091 11.575461 7.5948091 10.955732C7.5948091 10.709914 7.8010249 10.017322 8.0426722 9.0516834C8.2845745 8.0860462 8.6070251 7.5391803 9.8519669 7.5391803L13.367323 7.5391803C13.367323 7.5391803 12.798381 9.7349424 12.637282 10.336262" fill-rule="evenodd"/>
	<path fill="#10b981" transform="translate(0 -0.000103951)" d="M7.6664362 5.147646C7.6664362 5.5666766 8.0426722 5.6032381 8.2307901 5.6032381L11.060968 5.6032381L10.668164 7.1064067L7.8634758 7.1064067C7.4245343 7.1064067 6.951436 7.3797102 6.951436 7.8384137C6.951436 8.2955618 7.3947105 8.2955618 7.6513972 8.2955618L10.357693 8.2955618L10.062262 9.4297447L13.770068 9.4297447C14.509029 9.4297447 15.503147 8.9788198 16.027225 7.7896652L23.993683 7.7896652C23.887644 8.1389437 23.778799 8.4838142 23.67123 8.814683C22.986053 10.91943 21.347034 12.709645 17.961678 12.709645L9.4979086 12.709645L7.7380638 19.474293L0 19.474293L5.158709 0L21.6157 0C24.410192 0 25.06835 1.5716242 25.06835 2.8152323C25.06835 3.3330567 24.944468 4.0954022 24.752016 4.9609494L16.806208 4.9609494C16.806208 4.1545229 16.645109 3.2526734 15.220971 3.2526734L11.674263 3.2526734L11.36838 4.4262705L8.4635153 4.4262705C8.0964565 4.4262705 7.6664362 4.7286153 7.6664362 5.147646" fill-rule="evenodd"/>
	<path fill="white" transform="translate(64.5834 -0.000103951)" d="M3.3496687 19.47896L0 19.47896L5.1408663 0L14.97499 0L15.915324 11.260929L23.062525 0L32.681511 0L27.630116 19.47896L19.865032 19.47896L23.913134 4.127296L14.303068 19.47896L8.7681236 19.47896L7.424789 4.0998101L3.3496687 19.47896Z" fill-rule="evenodd"/>
	<path fill="white" transform="translate(95.0348 4.97443)" d="M19.332033 0L6.8650241 0C3.1839824 0 2.297178 2.6376112 1.867413 4.1817493C1.4373931 5.7261467 1.0746673 7.1883459 0.6716671 8.7737131C0.26866683 10.35908 0 11.192734 0 12.08084C0 14.062678 1.2762949 14.49986 3.7078063 14.49986L15.2615 14.49986C19.143915 14.49986 20.070993 12.03987 20.446974 10.632383C20.82321 9.224638 21.333778 7.3662267 21.723269 5.7398896C22.113014 4.113553 22.408445 3.1160216 22.408445 2.4190202C22.408445 0.75171399 21.374054 0 19.332033 0M14.339009 5.4847374C14.097107 6.4322238 13.255165 9.6574116 13.040283 10.413793C12.8254 11.169915 12.556734 11.670885 11.741557 11.670885L8.477025 11.670885C7.8665347 11.670885 7.6037307 11.479521 7.6037307 11.048303C7.6037307 10.618641 8.0798874 9.0607595 8.3159266 8.1176815C8.5501823 7.1748624 9.2427511 4.5782208 9.4041042 3.9146693C9.5652027 3.2526734 9.9473009 2.8333836 10.795105 2.8333836L14.123872 2.8333836C14.607677 2.8333836 14.822558 3.152324 14.822558 3.4984908C14.822558 3.6626284 14.580657 4.537251 14.339009 5.4847374" fill-rule="evenodd"/>
	<path fill="white" transform="translate(116.698 4.97451)" d="M18.250738 0.0067418292L17.182697 4.0383558L13.329342 4.0383558C11.179752 4.0383558 10.114007 4.4550529 9.6304569 6.2590108C9.1466532 8.0629683 7.4561419 14.506601 7.4561419 14.506601L0 14.506601C0 14.506601 2.3175702 5.6304646 2.8684137 3.594173C3.4192572 1.5578812 5.3804741 0 7.3016715 0C9.2228689 0 18.250738 0.0067418292 18.250738 0.0067418292" fill-rule="evenodd"/>
	<path fill="white" transform="translate(133.86 4.97443)" d="M18.98715 0L6.9858475 0C2.9553354 0 2.1674328 3.1066868 1.8895894 4.1363716C1.6120011 5.1657972 1.3971186 5.9403296 0.84168684 8.1633186C0.28650999 10.386307 0 11.188066 0 12.08084C0 13.702768 0.87762803 14.49986 3.3494139 14.49986L18.834972 14.49986L19.573679 11.670885L9.1084175 11.670885C7.9083385 11.670885 7.7112989 11.192734 7.7112989 10.70058C7.7112989 10.537479 7.888711 9.7842093 8.1311226 8.8284254L20.648602 8.8284254C20.648602 8.8284254 21.360544 6.0813894 21.642719 4.9881759C21.924896 3.8949623 22.13978 3.3346126 22.13978 2.4781408C22.13978 0.83832055 21.208366 0 18.98715 0M14.097107 6.0131931L8.8675356 6.0131931C9.1657705 4.8932714 9.4196529 3.9517493 9.4757318 3.7173409C9.6279087 3.0794601 10.183085 2.8243079 10.863929 2.8243079L13.694107 2.8243079C14.679304 2.8243079 14.732833 3.1250973 14.732833 3.4621887C14.732833 3.7992802 14.097107 6.0131931 14.097107 6.0131931" fill-rule="evenodd"/>
</svg>

