<svg width="128" height="128" viewBox="0 0 128 128" fill="none" xmlns="http://www.w3.org/2000/svg">
  <!-- Background circle -->
  <circle cx="64" cy="64" r="60" fill="#8B5CF6" stroke="#7C3AED" stroke-width="2"/>
  
  <!-- Rabbit head -->
  <ellipse cx="64" cy="70" rx="25" ry="22" fill="white"/>
  
  <!-- Rabbit ears -->
  <ellipse cx="50" cy="35" rx="8" ry="25" fill="white" stroke="#E5E7EB" stroke-width="1"/>
  <ellipse cx="78" cy="35" rx="8" ry="25" fill="white" stroke="#E5E7EB" stroke-width="1"/>
  
  <!-- Inner ear -->
  <ellipse cx="50" cy="35" rx="4" ry="15" fill="#FBBF24"/>
  <ellipse cx="78" cy="35" rx="4" ry="15" fill="#FBBF24"/>
  
  <!-- Eyes -->
  <circle cx="55" cy="68" r="3" fill="#1F2937"/>
  <circle cx="73" cy="68" r="3" fill="#1F2937"/>
  <circle cx="56" cy="67" r="1" fill="white"/>
  <circle cx="74" cy="67" r="1" fill="white"/>
  
  <!-- Nose -->
  <ellipse cx="64" cy="76" rx="3" ry="2" fill="#EC4899"/>
  
  <!-- Mouth -->
  <path d="M64 78 Q60 82 56 80" stroke="#1F2937" stroke-width="1.5" fill="none" stroke-linecap="round"/>
  <path d="M64 78 Q68 82 72 80" stroke="#1F2937" stroke-width="1.5" fill="none" stroke-linecap="round"/>
  
  <!-- Whiskers -->
  <line x1="40" y1="70" x2="25" y2="68" stroke="#1F2937" stroke-width="1" stroke-linecap="round"/>
  <line x1="40" y1="74" x2="25" y2="76" stroke="#1F2937" stroke-width="1" stroke-linecap="round"/>
  <line x1="88" y1="70" x2="103" y2="68" stroke="#1F2937" stroke-width="1" stroke-linecap="round"/>
  <line x1="88" y1="74" x2="103" y2="76" stroke="#1F2937" stroke-width="1" stroke-linecap="round"/>
</svg>